<?xml version="1.0" encoding="utf-8"?>
<!-- Generator: Adobe Illustrator 19.2.0, SVG Export Plug-In . SVG Version: 6.00 Build 0)  -->
<svg version="1.1" id="Layer_1" xmlns:serif="http://www.serif.com/"
	 xmlns="http://www.w3.org/2000/svg" xmlns:xlink="http://www.w3.org/1999/xlink" x="0px" y="0px" viewBox="0 0 612 792"
	 style="enable-background:new 0 0 612 792;" xml:space="preserve">
<style type="text/css">
	.st0{fill:#444343;}
	.st1{fill:#E1001A;}
	.st2{fill:#FFFFFF;}
	.st3{fill:#0A71B3;}
</style>
<g>
	<path class="st0" d="M398.4,614.3l-35.2-69.2h-2.5v69.2h-52.3V424.4c17.7-1.1,41.1-1.4,65-1.4c48.4,0,75.4,17.2,75.4,59.4
		c0,22.5-12.7,44.2-34,52c5.1,7.6,9.6,14.6,13.8,21.9l33.5,58H398.4z M370.6,466.1c-3.4,0-8.2,0.3-9.8,0.6v40.8
		c2,0.3,5.9,0.6,8.7,0.6c14.3,0,24.2-7.6,24.2-21.7C393.6,475.1,387.7,466.1,370.6,466.1z"/>
	<path class="st0" d="M518.3,618c-18.9,0-33.2-1.4-47-4.8l4.5-49.8c12.7,5.3,27,9,43.6,9c10.1,0,18.3-4.5,18.3-13.5
		c0-27.6-70.9-11.3-70.9-76.3c0-37.7,29-61.9,79.1-61.9c9.6,0,23.6,1.1,34.9,3.7l-4.5,45.3c-10.4-3.7-20.8-5.6-32.4-5.6
		c-14.6,0-20.8,5.3-20.8,12.7c0,23.9,73.2,14.9,73.2,75.4C596.2,589.6,563.9,618,518.3,618z"/>
</g>
<g>
	<path class="st1" d="M287.9,400.9c18.4-1.2,42.7-2.3,67.5-1.5c24.5,0.8,40.5,1.9,48.6,4.8c6.4-19.6,8.7-37,8.7-58.7
		c0-111.1-90-201.1-201.1-201.1s-201.1,90-201.1,201.1c0,111.1,90,201.1,201.1,201.1c27,0,52.8-5.3,76.3-15V400.9z"/>
</g>
<path class="st2" d="M301.2,423c6.6-0.4,14-0.7,21.9-0.9c15.2-21.7,24.1-48.2,24.1-76.7c0-74-60-134.1-134.1-134.1
	c-74,0-134.1,60-134.1,134.1c0,74,60,134.1,134.1,134.1c33.7,0,64.5-12.4,88-33V423z"/>
<circle class="st3" cx="213.2" cy="345.4" r="67"/>
</svg>
