<?xml version="1.0" encoding="utf-8"?>
<!-- Generator: Adobe Illustrator 19.2.0, SVG Export Plug-In . SVG Version: 6.00 Build 0)  -->
<svg version="1.1"
	 id="svg2" inkscape:export-filename="D:\Users\yuya-oc\Desktop\path4147.png" inkscape:export-xdpi="4.1084166" inkscape:export-ydpi="4.1084166" inkscape:version="0.91 r13725" sodipodi:docname="tray.svg" xmlns:cc="http://creativecommons.org/ns#" xmlns:dc="http://purl.org/dc/elements/1.1/" xmlns:inkscape="http://www.inkscape.org/namespaces/inkscape" xmlns:rdf="http://www.w3.org/1999/02/22-rdf-syntax-ns#" xmlns:sodipodi="http://sodipodi.sourceforge.net/DTD/sodipodi-0.dtd" xmlns:svg="http://www.w3.org/2000/svg"
	 xmlns="http://www.w3.org/2000/svg" xmlns:xlink="http://www.w3.org/1999/xlink" x="0px" y="0px" viewBox="0 0 560.8 560.8"
	 style="enable-background:new 0 0 560.8 560.8;" xml:space="preserve">
<style type="text/css">
	.st0{fill:#444343;}
	.st1{fill:#E1001A;}
	.st2{fill:#FFFFFF;}
	.st3{fill:#0A71B3;}
</style>
<sodipodi:namedview  bordercolor="#666666" borderopacity="1.0" fit-margin-bottom="0" fit-margin-left="0" fit-margin-right="0" fit-margin-top="0" id="base" inkscape:current-layer="layer1" inkscape:cx="-149.50001" inkscape:cy="294.7857" inkscape:document-units="px" inkscape:pageopacity="0.0" inkscape:pageshadow="2" inkscape:window-height="1057" inkscape:window-maximized="1" inkscape:window-width="1856" inkscape:window-x="56" inkscape:window-y="-8" inkscape:zoom="0.35" pagecolor="#ffffff" showgrid="false">
	</sodipodi:namedview>
<g>
	<path class="st0" d="M372.2,503.1l-33.5-66h-2.4v66h-49.9V322c16.9-1.1,39.2-1.3,62-1.3c46.2,0,71.9,16.4,71.9,56.6
		c0,21.5-12.1,42.1-32.5,49.6c4.8,7.2,9.1,14,13.1,20.9l31.9,55.3H372.2z M345.6,361.7c-3.2,0-7.8,0.3-9.4,0.5v38.9
		c1.9,0.3,5.6,0.5,8.3,0.5c13.7,0,23.1-7.2,23.1-20.7C367.6,370.3,362,361.7,345.6,361.7z"/>
	<path class="st0" d="M486.5,506.6c-18,0-31.7-1.3-44.8-4.6l4.3-47.5c12.1,5.1,25.8,8.6,41.6,8.6c9.7,0,17.4-4.3,17.4-12.9
		c0-26.3-67.6-10.7-67.6-72.7c0-36,27.6-59,75.4-59c9.1,0,22.5,1.1,33.3,3.5l-4.3,43.2c-9.9-3.5-19.9-5.4-30.9-5.4
		c-14,0-19.9,5.1-19.9,12.1c0,22.8,69.8,14.2,69.8,71.9C560.9,479.5,530,506.6,486.5,506.6z"/>
</g>
<g>
	<path class="st1" d="M266.7,299.6c17.6-1.1,40.7-2.1,64.4-1.4c23.3,0.7,38.7,1.8,46.4,4.6c6.1-18.7,8.3-35.3,8.3-56
		C385.8,140.8,299.9,55,194,55S2.2,140.8,2.2,246.8C2.2,352.7,88,438.6,194,438.6c25.8,0,50.3-5.1,72.8-14.3V299.6z"/>
</g>
<path class="st2" d="M279.5,320.7c6.3-0.4,13.4-0.7,20.9-0.9c14.5-20.7,23-46,23-73.2c0-70.6-57.2-127.9-127.9-127.9
	c-70.6,0-127.9,57.3-127.9,127.9c0,70.6,57.3,127.9,127.9,127.9c32.1,0,61.5-11.9,84-31.4V320.7z"/>
<circle class="st3" cx="195.5" cy="246.6" r="63.9"/>
</svg>
