<?xml version="1.0" encoding="utf-8"?>
<!-- Generator: Adobe Illustrator 19.2.0, SVG Export Plug-In . SVG Version: 6.00 Build 0)  -->
<svg version="1.1"
	 id="svg2" inkscape:export-filename="D:\Users\yuya-oc\Desktop\path4147.png" inkscape:export-xdpi="4.1084166" inkscape:export-ydpi="4.1084166" inkscape:version="0.91 r13725" sodipodi:docname="tray_mention.svg" xmlns:cc="http://creativecommons.org/ns#" xmlns:dc="http://purl.org/dc/elements/1.1/" xmlns:inkscape="http://www.inkscape.org/namespaces/inkscape" xmlns:rdf="http://www.w3.org/1999/02/22-rdf-syntax-ns#" xmlns:sodipodi="http://sodipodi.sourceforge.net/DTD/sodipodi-0.dtd" xmlns:svg="http://www.w3.org/2000/svg"
	 xmlns="http://www.w3.org/2000/svg" xmlns:xlink="http://www.w3.org/1999/xlink" x="0px" y="0px" viewBox="0 0 560.8 560.8"
	 style="enable-background:new 0 0 560.8 560.8;" xml:space="preserve">
<style type="text/css">
	.st0{fill:#E1001A;}
	.st1{fill:#FFFFFF;}
	.st2{fill:#0A71B3;}
	.st3{fill:none;enable-background:new    ;}
	.st4{fill:#E20019;stroke:#000000;stroke-width:20;}
</style>
<sodipodi:namedview  bordercolor="#666666" borderopacity="1.0" fit-margin-bottom="0" fit-margin-left="0" fit-margin-right="0" fit-margin-top="0" id="base" inkscape:current-layer="layer1" inkscape:cx="-148.07144" inkscape:cy="294.7857" inkscape:document-units="px" inkscape:pageopacity="0.0" inkscape:pageshadow="2" inkscape:window-height="1057" inkscape:window-maximized="1" inkscape:window-width="1856" inkscape:window-x="56" inkscape:window-y="-8" inkscape:zoom="0.35" pagecolor="#ffffff" showgrid="false">
	</sodipodi:namedview>
<g id="layer1" transform="translate(-13.071442,-124.71934)" inkscape:groupmode="layer" inkscape:label="レイヤー 1">
	<g>
		<path class="st0" d="M279.7,424.3c17.6-1.1,40.7-2.1,64.4-1.4c23.3,0.7,38.7,1.8,46.4,4.6c6.1-18.7,8.3-35.3,8.3-56
			c0-105.9-85.9-191.8-191.8-191.8S15.1,265.6,15.1,371.5c0,105.9,85.9,191.8,191.8,191.8c25.8,0,50.3-5.1,72.8-14.3V424.3z"/>
	</g>
	<path class="st1" d="M292.5,445.4c6.3-0.4,13.4-0.7,20.9-0.9c14.5-20.7,23-46,23-73.2c0-70.6-57.2-127.9-127.9-127.9
		c-70.6,0-127.9,57.3-127.9,127.9c0,70.6,57.3,127.9,127.9,127.9c32.1,0,61.5-11.9,84-31.4V445.4z"/>
	<circle class="st2" cx="208.5" cy="371.3" r="63.9"/>
	<path class="st3" d="z"/>
	<circle id="path4149" class="st4" cx="433.1" cy="545.5" r="132"/>
</g>
</svg>
