<?xml version="1.0" encoding="utf-8"?>
<!-- Generator: Adobe Illustrator 19.2.0, SVG Export Plug-In . SVG Version: 6.00 Build 0)  -->
<svg version="1.1"
	 id="svg2" inkscape:version="0.91 r13725" sodipodi:docname="ClickedMenuIcon.svg" xmlns:cc="http://creativecommons.org/ns#" xmlns:dc="http://purl.org/dc/elements/1.1/" xmlns:inkscape="http://www.inkscape.org/namespaces/inkscape" xmlns:rdf="http://www.w3.org/1999/02/22-rdf-syntax-ns#" xmlns:sodipodi="http://sodipodi.sourceforge.net/DTD/sodipodi-0.dtd" xmlns:svg="http://www.w3.org/2000/svg"
	 xmlns="http://www.w3.org/2000/svg" xmlns:xlink="http://www.w3.org/1999/xlink" x="0px" y="0px" viewBox="0 0 500 500"
	 style="enable-background:new 0 0 500 500;" xml:space="preserve">
<style type="text/css">
	.st0{fill:#848383;}
	.st1{fill:#DD5E70;}
	.st2{fill:#FFFFFF;}
	.st3{fill:#6295B2;}
</style>
<sodipodi:namedview  bordercolor="#666666" borderopacity="1" gridtolerance="10" guidetolerance="10" id="namedview10" inkscape:current-layer="svg2" inkscape:cx="-312.89678" inkscape:cy="250" inkscape:pageopacity="0" inkscape:pageshadow="2" inkscape:window-height="773" inkscape:window-maximized="0" inkscape:window-width="1342" inkscape:window-x="485" inkscape:window-y="333" inkscape:zoom="0.472" objecttolerance="10" pagecolor="#ffffff" showgrid="false">
	</sodipodi:namedview>
<sodipodi:namedview  bordercolor="#666666" borderopacity="1" gridtolerance="10" guidetolerance="10" id="namedview10" inkscape:current-layer="svg2" inkscape:cx="-337.92373" inkscape:cy="250" inkscape:pageopacity="0" inkscape:pageshadow="2" inkscape:window-height="773" inkscape:window-maximized="0" inkscape:window-width="1342" inkscape:window-x="485" inkscape:window-y="333" inkscape:zoom="0.472" objecttolerance="10" pagecolor="#ffffff" showgrid="false">
	</sodipodi:namedview>
<g>
	<path class="st0" d="M330.9,455.1l-29.8-58.6h-2.1v58.6h-44.3V294.2c15-1,34.8-1.2,55.1-1.2c41,0,63.9,14.5,63.9,50.3
		c0,19.1-10.7,37.4-28.8,44.1c4.3,6.4,8.1,12.4,11.7,18.6l28.4,49.1H330.9z M307.3,329.5c-2.9,0-6.9,0.2-8.3,0.5v34.6
		c1.7,0.2,5,0.5,7.4,0.5c12.2,0,20.5-6.4,20.5-18.4C326.8,337.1,321.8,329.5,307.3,329.5z"/>
	<path class="st0" d="M432.5,458.2c-16,0-28.1-1.2-39.8-4.1l3.8-42.2c10.7,4.5,22.9,7.6,37,7.6c8.6,0,15.5-3.8,15.5-11.4
		c0-23.4-60.1-9.5-60.1-64.6c0-31.9,24.6-52.4,67-52.4c8.1,0,20,1,29.6,3.1l-3.8,38.4c-8.8-3.1-17.6-4.8-27.4-4.8
		c-12.4,0-17.6,4.5-17.6,10.7c0,20.3,62,12.6,62,63.9C498.5,434.1,471.1,458.2,432.5,458.2z"/>
</g>
<g>
	<path class="st1" d="M237.2,274.3c15.6-1,36.1-1.9,57.2-1.2c20.7,0.7,34.3,1.6,41.2,4.1c5.4-16.6,7.4-31.4,7.4-49.7
		C343,133.3,266.7,57,172.6,57S2.2,133.3,2.2,227.4c0,94.1,76.3,170.4,170.4,170.4c22.9,0,44.7-4.5,64.7-12.7V274.3z"/>
</g>
<path class="st2" d="M248.5,293c5.6-0.4,11.9-0.6,18.6-0.8c12.9-18.4,20.4-40.8,20.4-65c0-62.7-50.9-113.6-113.6-113.6
	c-62.7,0-113.6,50.9-113.6,113.6c0,62.7,50.9,113.6,113.6,113.6c28.6,0,54.6-10.5,74.6-27.9V293z"/>
<circle class="st3" cx="173.9" cy="227.2" r="56.8"/>
</svg>
